<?xml version="1.0" encoding="utf-8"?>
<svg viewBox="1095.099609375 1213.8997802734375 76.4002685546875 139.7000732421875" width="76.4002685546875" height="139.7000732421875" xmlns="http://www.w3.org/2000/svg"><path fill="#CCCCCC" d="M1111.7,1296c-0.3-2-0.6-4-0.9-5.9c-0.1-1-0.2-1.9-0.3-2.9c-0.6-1.2-1.2-2.3-1.8-3.5&#10;&#9;&#9;&#9;c-0.9-2-1.5-4.1-2.2-6.3c-0.2-0.7-0.4-1.3-0.7-2c0-1,0-1.9,0-2.9c0-0.4,0-0.9,0-1.3c0.5-2.4,2.2-4,3.4-5.7c1.3-1.9,2.3-4,3.2-6.3&#10;&#9;&#9;&#9;c-0.8-0.8-1.7-1.6-2.5-2.4c0-2.3,1.4-4.7,2.3-6.3c0.3-0.5,0.5-1,0.8-1.5c0-0.6,0-1.2,0.1-1.8c0.9-3.3,1.7-6.6,2.6-9.9&#10;&#9;&#9;&#9;c0.7-1.7,1.9-3,2.9-4.4c0.7-1.1,1.3-2.4,2.4-3.2c1.6-0.9,3.1-1.9,4.7-2.8c1.3-0.2,2.6-0.3,3.8-0.5c2.3-0.6,4.2-1.8,5.4-3.6&#10;&#9;&#9;&#9;c-0.4,0-0.8,0-1.2-0.1c0.4-0.3,0.7-0.5,1.1-0.8c0,0,0,0,0-0.1c-0.6,0.2-1.1,0.3-1.7,0.5c0.7-0.4,1.3-0.9,2-1.3&#10;&#9;&#9;&#9;c0,0,0.1-0.1,0.1-0.1c-0.4,0-0.7,0.1-1.1,0.1c0.8-1.1,2.1-1.8,3.2-2.7c1.4-1.1,2.8-2.3,4.2-3.4c0.4-0.1,0.8-0.2,1.2-0.2&#10;&#9;&#9;&#9;c3-0.8,5.2,0.2,7.5,1c1,0.3,2,0.5,2.8,1.1c0.3,0.5,0.6,1,0.9,1.5c0,0.4,0,0.8,0.1,1.3c0.2,0.7,0.6,1.3,0.8,1.9c0,0.8,0,1.5,0,2.3&#10;&#9;&#9;&#9;c0.2,0.4,0.5,0.7,0.7,1.1c-0.1,0.3-0.2,0.6-0.3,0.9c0.2,0,0.4,0.1,0.6,0.1c0.3-0.2,0.6-0.4,0.9-0.6c1-0.5,2-1,3.2-1.3&#10;&#9;&#9;&#9;c1.5-0.3,3.7-0.2,5,0.2c0.7,0.3,1.3,0.5,2,0.8c0,0.3,0.1,0.7,0.1,1c0.2,0.7,0.8,1.1,1.1,1.6c0.1,0.8,0.3,1.5,0.4,2.3&#10;&#9;&#9;&#9;c1,0.5,1.7,1.5,2.7,2c0,0.3,0,0.6-0.1,0.8c-0.2,0.1-0.4,0.2-0.5,0.4c-0.2,0.4,0.2,0.8,0.3,1.1c0,0.4,0,0.8-0.1,1.3&#10;&#9;&#9;&#9;c0.2,0.8,0.5,1.5,0.7,2.3c-0.2,0.3-0.3,0.6-0.5,0.9c-2.9,0.6-3.7,4.2-4.8,6.7c-0.4,1-1.2,2-1.4,3.2c-0.3,1.2,0.2,2.6,0,3.9&#10;&#9;&#9;&#9;c-0.5,3.1-1.5,5.9-2.1,8.9c0.1,0.9,0.2,1.8,0.2,2.6c0.2,1.1,0.2,3.7,0,4.8c0,0.4,0,0.8,0,1.2c-0.3,1.6-0.6,3.2-0.9,4.8&#10;&#9;&#9;&#9;c-0.4,1-0.8,2-1.3,3c-0.3,1.1-0.7,2.2-1,3.3c-0.2,0.6-0.4,1.2-0.6,1.9c0.7-0.1,1.5-0.2,2.2-0.3c-0.7,2.7-1.4,5.5-2.1,8.2&#10;&#9;&#9;&#9;c0.3,0.1,0.5,0.3,0.8,0.4c0.3,0.5,0.6,1,1,1.5c0,0.5,0,0.9,0,1.4c-0.4,0.4-0.8,0.8-1.2,1.3c-0.2,0.3-0.3,0.6-0.5,0.8&#10;&#9;&#9;&#9;c-0.5,0.2-1,0.4-1.4,0.6c-0.6,3.1-1.2,6.2-1.8,9.3c-0.8,4.4-1.5,8.7-2.3,13.1c-0.3,3.8-0.7,7.7-1,11.5c0,1.2,0,2.5,0,3.7&#10;&#9;&#9;&#9;c-0.1,2.7-0.1,5.5-0.2,8.2c0.3,3.2,0.5,6.3,0.8,9.5c-0.8,0.1-1.6,0.1-2.3,0.1c-0.1-2.2-0.2-4.4-0.3-6.6c-0.5,0-0.9,0-1.4,0.1&#10;&#9;&#9;&#9;c-0.2-1.2-0.4-2.3-0.6-3.5c0-5.6-0.1-11.1-0.1-16.7c-7.7-0.4-15.3-0.8-23-1.1c-0.3,4.2-0.5,8.5-0.8,12.7c-0.3-0.2-0.7-0.3-1-0.5&#10;&#9;&#9;&#9;c-0.4-0.4-0.8-0.9-1.2-1.3c0.5-5.6,1.1-11.2,1.6-16.7c-0.6-0.1-1.2-0.2-1.8-0.4c0.7-1.3,1.4-2.7,2.1-4c1.5,0.2,3,0.4,4.5,0.6&#10;&#9;&#9;&#9;c3.3,0.6,7,1.1,10.6,0.7c0.4-1.2,0.7-2.5,1.1-3.7c2.8,0.4,5.6,0.7,8.4,1.1c0.2-3,0.7-5.8,1.4-8.4c0.8-4.6,1.6-9.2,2.5-13.8&#10;&#9;&#9;&#9;c-0.4-0.5-0.9-0.9-1.3-1.4c0-7.3,0.4-14.9,2.3-20.3c-0.5,0.5-1,1-1.5,1.5c-0.6,0.4-1.2,0.8-1.9,1.3c-1.1,1.3-2.2,2.7-3.3,4&#10;&#9;&#9;&#9;c-1.3,1.3-2.6,2.7-3.9,4c-0.8,1.1-1.9,2.1-3,2.9c-0.4,0.3-0.8,0.8-1.3,1.1c-0.3,0.6,0,2,0,2.7c0.3,2.2,0.7,4.3,1,6.5&#10;&#9;&#9;&#9;c0.2,1.5,0.4,2.9,0.6,4.4c0,1.1,0,2.2,0,3.2c0.3,2.2,0.4,4.8,0,7c0,0.9-0.1,1.7-0.1,2.6c-0.4,1.6-0.8,3.1-1.1,4.7&#10;&#9;&#9;&#9;c-1,0.6-3.3,0.7-4.7,0.4c-3.5-0.5-7-1.1-10.5-1.6c-0.4,0.8-0.8,1.7-1.2,2.5c-0.4,0.6-0.8,1.3-1.2,1.9c-0.5,1.3-0.3,3.1-0.6,4.6&#10;&#9;&#9;&#9;c-0.2,1.6-0.4,3.2-0.7,4.8c-0.2,0.9-0.5,2.1-0.3,3.3c0.2,0.8,0.4,1.6,0.7,2.4c0.1,0.5,0.2,1,0.3,1.4c0.4,0.4,0.7,0.8,1.1,1.2&#10;&#9;&#9;&#9;c0.3,0.4,0.6,0.8,0.9,1.2c1.7,0.6,3.4,1.2,5.2,1.8c0.4,0,0.8-0.1,1.1-0.1c0.5-0.1,0.8,0.1,1.1,0.2c0.5,0.2,2.1,0.6,2,1.3&#10;&#9;&#9;&#9;c-0.3,1.3-2.3,1.3-3.8,1.3c-3.3,0-6.1,0.6-9.1,0.8c0.2,1.3,0.4,2.6,0.6,3.9c0.4,1,1.5,2.1,2.3,2.6c1.3,0.9,2.8,1.6,4.2,2.1&#10;&#9;&#9;&#9;c0.9,0.3,2.2,0.6,2.6,1.4c0,0.1,0,0.2,0,0.2c-0.7,0.8-2.6,0.8-4.2,0.7c-1.5,0-3.1-0.1-4.6-0.1c-1.4-0.2-3.4-0.1-4.7,0.1&#10;&#9;&#9;&#9;c-1.5,0.3-3,0.1-3.7-0.8c-0.5-0.8-0.2-2.2,0.1-3c0.2-0.4,0.4-0.9,0.6-1.3c0.2-2.3,0.4-4.6,0.5-6.9c-0.3-1.4-0.5-2.7-0.8-4.1&#10;&#9;&#9;&#9;c-0.3-3.1-0.7-6.2-1-9.3c-0.4-2.5-0.6-5.9-0.2-8.6c0-0.8,0.1-1.5,0.1-2.3c0.6-1.7,1.2-3.4,1.8-5.1c-1.8,0-4-0.2-5.5,0.2&#10;&#9;&#9;&#9;c-1.6,0.5-2.5,1.7-3.6,2.6c-1.6,1.3-3.3,2.6-4.9,3.9c-0.2,0.4-0.4,0.9-0.6,1.3c-0.6,0.8-1.7,1.4-2.6,1.8c-0.2-0.3-0.4-0.6-0.7-0.8&#10;&#9;&#9;&#9;c-0.5-1,0-3.7,0.2-4.7c1-3.4,2.9-5.9,4.1-9.1c0.6-1.7,1.4-4.5,3.1-5c1.5-0.5,3,0.5,4,0.9c1.7,0.7,4.1,1,6.5,1&#10;&#9;&#9;&#9;C1113.7,1300.9,1112.3,1298.9,1111.7,1296z M1134.8,1221.9C1134.8,1221.9,1134.9,1221.9,1134.8,1221.9&#10;&#9;&#9;&#9;C1134.9,1221.9,1134.8,1221.9,1134.8,1221.9z M1150.2,1232.1c-0.4,0.1-0.9,0.1-1.3,0.2c0-0.1,0-0.2-0.1-0.3c0,0,0,0-0.1,0&#10;&#9;&#9;&#9;c-0.7,1-1.9,1.9-2.2,3.3c-0.7,0.2-1.3-0.1-1.8-0.3c-0.1,0.3-0.1,0.6-0.2,0.8c-0.7,0.1-1.2,0.3-1.5,0.8c-0.3-0.1-0.7-0.1-1-0.1&#10;&#9;&#9;&#9;c-0.7,0.2-1.1,1-1.9,1.1c-1.7,0.3-3.2-2.1-3.5-3.3c-0.7,0.3-1.4,0.7-2.1,1c0.1,0.8,0.3,1.8,0.1,2.6c-0.3,0.8-0.6,1.6-0.9,2.4&#10;&#9;&#9;&#9;c0,1.4,0,2.7,0.1,4.1c-0.4,1.8-0.8,3.6-1.2,5.3c-0.3,0.7-1.3,1-1.6,1.7c-0.3,0.7-0.3,2.1-0.2,3.1c0,0.3,0,0.6,0.1,0.9&#10;&#9;&#9;&#9;c-0.2,0.7-0.3,1.4-0.5,2c-0.3,0.6-0.6,1.2-1,1.9c-0.5,1.3-0.3,3.3-0.3,5c0.8,0.8,1.6,1.5,2.4,2.3c0.3,0.3,0.5,0.7,0.8,1&#10;&#9;&#9;&#9;c0.9,0,1.8,0.1,2.7,0.1c0.7-0.5,1.5-1,2.2-1.5c0.4-0.6,0-1.6,0.2-2.2c0.8-1.1,1.7-2.3,2.5-3.4c0.4-0.5,0.8-1,1.2-1.4&#10;&#9;&#9;&#9;c1.2-2.2,2.4-4.5,3.6-6.7c0.3-0.7,0.6-1.4,0.9-2.1c0.4-0.4,0.7-0.7,1.1-1.1c0.6-1.8,1.1-3.5,1.7-5.3c0.5-1.3,1.2-2.6,1.6-4&#10;&#9;&#9;&#9;c1-3.2,1.6-6.8,2.3-10.1C1151,1230.3,1150.5,1230.7,1150.2,1232.1z M1119.1,1238.1c-1.3,2.3-2.5,4.7-3.8,6.9&#10;&#9;&#9;&#9;c-0.3,0.4-1.8,2.7-1.6,3.1c0,0,0,0,0,0.1c0.7-1.2,1.5-2.5,2.2-3.7c1.9-3.1,3.5-6.3,5-9.8&#10;&#9;&#9;&#9;C1120.1,1235.3,1119.6,1237.1,1119.1,1238.1z M1127.4,1245.1c-3.6,6.1-6.6,8.2-7,8.6c0.3,0.8,0.5,1.5,0.8,2.3&#10;&#9;&#9;&#9;c1.1,1.8,2.8,3.4,4.1,5c1.1,1.4,2.2,2.8,3.8,3.7c-0.2-0.6-0.7-0.6-1.2-0.9c-0.4-0.5-0.9-1-1.3-1.5c-1.5-1.9-3.1-3.5-4.7-5.5&#10;&#9;&#9;&#9;c-0.6-0.8-0.8-1.8-1.2-2.7c-0.3,0.4,4.4-4.1,6.8-8.6c0.7-1.2,1.7-2.2,2.1-3.7C1128.9,1242.8,1128.2,1243.9,1127.4,1245.1z&#10;&#9;&#9;&#9; M1156.8,1252.5c0,1-0.1,1.9-0.1,2.9c-0.2,1.6-0.2,4.2,0,5.8c0.1,1.3,0.1,2.6,0.2,3.9c-0.1,1.6-0.3,3.2-0.4,4.9&#10;&#9;&#9;&#9;c-0.4,2.3-0.9,4.6-1.3,7c0,0.6,0.1,1.2,0.1,1.8c0.2,1.6,0.1,3.4,0.1,5.1c0,0.7,0,1.5,0,2.2c-0.3,1.2-0.7,2.5-1,3.7&#10;&#9;&#9;&#9;c-0.2,1.1,0.2,3.2,0.3,4.1c0-1.3,0-2.6,0-3.9c0.4-1.4,0.7-2.7,1.1-4.1c0-0.7,0-1.4-0.1-2.1c0-2.4-0.1-4.7-0.1-7.1&#10;&#9;&#9;&#9;c0.4-2.4,0.8-4.8,1.3-7.2c0-0.8,0.1-1.6,0.1-2.4c0.3-1.7,0.3-3.9,0-5.7c0-1.3-0.1-2.6-0.1-4c0.1-2.8,0.2-5.7,0.3-8.5&#10;&#9;&#9;&#9;c-0.1-0.1-0.2-0.2-0.2-0.3C1156.9,1249.9,1156.8,1251.2,1156.8,1252.5z M1113.3,1260.9c0.7,1.1,1.2,1.6,2.3,2.4&#10;&#9;&#9;&#9;c0.9,0.8,1.9,1.5,3,2.1c1.6,1,3.1,2.2,4.7,3.2c0.8,0.6,2.9,1.8,3.7,2c-1.4-0.9-2.8-1.8-4.3-2.7c-1.5-1-2.9-2.1-4.4-3.1&#10;&#9;&#9;&#9;c-2.2-1.5-3.9-2.7-5.4-4.6C1113,1260.4,1113.2,1260.6,1113.3,1260.9z M1137.9,1266.2c1-0.4,2.6-0.9,3.5-0.3&#10;&#9;&#9;&#9;c0.8,0.5,0.4,1.3,0.2,1.7c-0.4,0.5-2.1,0.5-3,0.5c0,0,0,0,0,0c0.6,0.2,1.1,0.5,1.7,0.7c2,0.9,4.7,1.8,5.8,3.6&#10;&#9;&#9;&#9;c0.4,0.8,0.6,1.3,0.6,1.7c0,0.7-0.7,0.9-1.5-0.2c-1.2-1-2.4-2-4.1-2.5c0.2,0.2,1.3,0.7,2.2,1.3c1.1,0.8,2,1.5,1.7,2.4&#10;&#9;&#9;&#9;c-0.1,0.2-0.3,0.5-0.6,0.7c-0.5,0.2-0.7-0.3-1.1-0.8c-0.9-1-1.6-1.3-3.1-2c0.4,0.4,1.1,0.6,1.8,1.1c0.9,0.6,1.6,1.4,1.7,2.4&#10;&#9;&#9;&#9;c0,0.7-0.7,1.2-1.6,0.6c-0.6-0.6-1.4-1-2.1-1.5c-0.5-0.3-0.6-0.4-1-0.5c0.9,0.8,2.9,1.5,3.1,3c0,0.4-0.4,0.9-1.1,0.7&#10;&#9;&#9;&#9;c-0.7-0.2-3-1.5-3.9-1.9c-0.9-0.4-2.2-0.6-3.2-0.9c-0.6-0.1-1.2-0.3-1.8-0.5c-0.6-0.2-2-1.2-2.4-1.4c-0.4-0.3-0.5-0.7-0.8-1&#10;&#9;&#9;&#9;c0.2,0.6,0.4,0.8,0.8,1.2c0.7,0.6,1.5,1.1,2.4,1.4c0.5,0.1,1.1,0.4,1.6,0.5c1.3,0.3,2.4,0.5,3.5,1c1.4,0.7,3.4,1.6,3.7,1.8&#10;&#9;&#9;&#9;c0.3,0.2,0.9,0.1,1.3-0.2c0.3-0.2,0.3-0.7,0.2-1.3c0.4,0.2,0.8,0.2,1.2-0.2c0.2-0.2,0.3-0.6,0.3-1.2c0.5,0.1,0.9-0.2,1.1-0.5&#10;&#9;&#9;&#9;c0.1-0.2,0.2-0.6,0.3-1c0.3,0.3,0.8,0.5,1.2,0.3c0.4-0.2,0.6-1.1-0.5-2.8c-0.5-0.7-1.2-1.2-1.9-1.6c-0.8-0.5-1.7-0.9-2.7-1.3&#10;&#9;&#9;&#9;c-0.5-0.2-1.1-0.4-1.7-0.7c-0.8-0.3,1.5,0,2-0.9c0.7-1,0.1-2-0.8-2.1C1140.1,1265.4,1138.9,1265.6,1137.9,1266.2z M1126.2,1272.6&#10;&#9;&#9;&#9;c-0.4,0.4-0.7,0.8-1.1,1.2c-0.5,0.8-0.4,2.6-0.4,3.8c0,0,0,0,0,0c0.3-1.5,1-3,1.8-4.1c0.4-0.5,1.3-0.4,1.6-1.1&#10;&#9;&#9;&#9;c0.1-0.1,0.3-0.3,0.4-0.4c-0.4-0.4-0.8-0.7-1.2-1.1C1127,1271.5,1126.6,1272.1,1126.2,1272.6z M1130.7,1304.4&#10;&#9;&#9;&#9;c-0.6-2-1.2-4-1.9-6.1c-0.7-2.7-1.3-5.3-2-8c-0.6-1.7-1.1-3.4-1.6-5.1c0,1.8-0.1,3.5-0.1,5.3c0,1.2,0,2.4-0.1,3.6&#10;&#9;&#9;&#9;c0,1.7,0,3.5,0,5.2c0.1,1.5,0.2,3.1,0.3,4.6C1127.2,1304,1128.8,1304.4,1130.7,1304.4z M1154.3,1295.7c-0.2,1.2-0.4,2.5-0.6,3.7&#10;&#9;&#9;&#9;c-0.5,2.4-0.7,5-1.2,7.6c-0.5,2.4-0.9,4.9-1.2,7.4c0.4,0.2,0.8,0.3,1.2,0.5c0.4-3,0.9-6,1.3-9c0.5-2.4,0.6-4.7,1.2-7&#10;&#9;&#9;&#9;c0.3-0.7,0.7-1.4,1-2.1c0.2-0.9-1.1-1.8-1.5-2.3C1154.3,1294.6,1154.4,1295.2,1154.3,1295.7z M1123.7,1347.1&#10;&#9;&#9;&#9;c-0.1,0.7-0.2,1.3-0.3,2c-0.5-0.2-0.8-0.5-1.1-0.9c-1.4-1.8-0.3-3.2-0.2-5.7c0.7-0.1,1.3-0.1,2-0.2&#10;&#9;&#9;&#9;C1124,1344,1123.9,1345.6,1123.7,1347.1z" transform="matrix(1, 0, 0, 1, 0, 0)"/></svg>