<?xml version="1.0" encoding="utf-8"?>
<svg viewBox="1264.500244140625 1024.1002197265625 249.5001220703125 214.8995361328125" width="249.5001220703125" height="214.8995361328125" xmlns="http://www.w3.org/2000/svg"><path fill="#CCCCCC" d="M1336.8,1188.8c0.4-2.2,1.3-8.7,0.6-11.1c-1.7-5.9-7.1-11.4-4.9-20.5c1.1-4.6,3.2-9,5.4-12.6&#10;&#9;&#9;&#9;c2.5-4,6-8,7-13.5c-0.9-1.9-1.8-3.8-2.7-5.6c-0.6-2.4,0.6-6.7,0.6-9.7c0-8.8-0.3-18.3,1-25.8c0.7-4.2,0.4-8.7,2.2-11.9&#10;&#9;&#9;&#9;c1.6-2.7,5.6-7.5,8.2-9.1c3.1-1.8,7.1-2.7,8.9-5.6c1.6-2.6,2.1-6.8,0.8-9.9c-0.7-1.1-1.3-2.3-2-3.4c0.3-4.4,0.6-8.8,0.8-13.2&#10;&#9;&#9;&#9;c0.9-3.5,4.1-5,4.7-8.7c11.9-4.1,25.8,0.9,27.9,10.6c-1,1.6-1.4,3.3-1.8,5.8c0,1.2,0,2.4,0,3.6c-0.4,1.6-1.7,2.7-2.2,4&#10;&#9;&#9;&#9;c-1.1,2.6-0.6,3.7-2.2,5.9c0.2,0.9,0.4,1.7,0.6,2.6c-0.7,0.8-1.4,1.6-2.1,2.5c-0.6,1.2-0.2,2.4-1.1,3.2c-1.8,1.4-5.7,1.5-8.1,2.2&#10;&#9;&#9;&#9;c-0.2,0.8-0.5,1.6-0.7,2.5c2.4,2.1,5,7.1,4.3,11.9c-0.3,2.3-0.5,5.3-0.1,7.7c0.9,5.6,1.8,11.3,2.7,16.9c-0.4,1.9-0.7,3.8-1.1,5.8&#10;&#9;&#9;&#9;c-0.7,1.4-1.3,2.8-2,4.1c-1.2,5.4-1.4,15.7,0,21.2c1.2,4.7,3.5,9,5.3,13c0.3,0.9,0.7,1.7,1,2.6c1.5,1.6,4.7,0.4,7.3,1.1&#10;&#9;&#9;&#9;c5.6,1.4,9.9,4.4,12.3,9.1c-0.3,0.7-0.4,1.2-1.4,1.4c0,0,0,0.1,0,0.1c4.7,1.9,8.5,5.9,12.7,8.4c5.4,2,10.8,4,16.2,6&#10;&#9;&#9;&#9;c5.1,1.5,11.7,1.1,17.7,1.1c1.9,0,3.7-0.1,5.6-0.1c3.1,0.5,6.1,1,9.2,1.5c1.3,0.9,2.6,1.8,3.9,2.7c4-6.1,12-12.5,20.9-13.5&#10;&#9;&#9;&#9;c6.1-0.7,14,7.4,15.8,11.3c0.1,0.3,1.4,11.8,1.4,11.8c-0.5,1.2-1,2.5-1.5,3.7c0-0.5,0-1,0-1.5c-0.8,1-0.9,2-1.9,2.7&#10;&#9;&#9;&#9;c0.2-1,0.4-2,0.6-3c0,0-0.1,0-0.1,0c-0.5,1.5-1.5,2.9-2.8,3.7c0-0.4,0-0.7,0-1.1c0,0-0.1,0-0.1,0c-1.4,0.9-3.6,2.4-4.2,4&#10;&#9;&#9;&#9;c-0.7,2,0.1,4.1-1,5.5c-0.3,0.2-0.7,0.5-1,0.7c-2.8-1.1-4.1,0.1-6.1,1.5c-1,0.1-2,0.3-2.9,0.4c-0.8,0.3-1.4,1-2.7,0.8&#10;&#9;&#9;&#9;c-2.8-0.5-3.4-3.5-5.6-4.5c-1.6-2-5-0.8-8.7-1c-1.3,3.8-2.6,9-2.5,14.3c0.1,0.1,0.2,0.3,0.3,0.4c2.2-0.4,4.4-0.8,6.6-1.2&#10;&#9;&#9;&#9;c3.1-0.1,6.1-0.2,9.2-0.3c5.4-0.8,11.1-0.9,15.8-1.8c3.2-0.6,9.3-0.8,11.6,0.6c0.5,0.6,1,1.3,1.5,1.9c0.1,2.9-1.1,3.5-1.1,6.6&#10;&#9;&#9;&#9;c-0.4,0-0.7,0.1-1.1,0.1c0,0.6,0,1.1,0,1.7c-1.3,1.2-2.1,2.6-2.9,4.3c-3,0.3-6,0.6-8.9,0.8c-3.2-0.5-5.6-1.9-9.8-1.1&#10;&#9;&#9;&#9;c-4.6,1.2-9.2,2.4-13.8,3.6c-7.6,1.6-22.1,1.6-29.1-0.3c0-4.9,1.1-9.1,2-13.5c0.7-3.9,1.3-7.7,2-11.5c-0.1-0.5,0-0.3-0.3-0.5&#10;&#9;&#9;&#9;c-0.3-0.1-0.7-0.3-1-0.4c-3.4,2.9-5.7,11.4-13.1,10c-6.4-1.2-4.1-10.2-7.1-12.1c-3.1-1.1-6.1-2.2-9.2-3.3&#10;&#9;&#9;&#9;c-2.9-0.7-6.1,0.2-8.4-0.5c-4.1-1.3-6.7-5.1-9.9-7.4c1.5,2.7,3.1,5.5,4.6,8.2c2.5,6.2,4.8,13.3,4.3,20.9c-5,3.8-6.5,1.5-12,0.7&#10;&#9;&#9;&#9;c0,3-0.6,5.2-0.8,7.6c-6.6,4.1-12-0.1-18.3-1.8c-3.1-0.6-6.2-1.2-9.2-1.8c-2.8-0.7-5.5-1.4-8.2-2.1c-2.6-0.2-5.2-0.4-7.8-0.6&#10;&#9;&#9;&#9;c-4-0.9-8-1.8-12-2.7c-3.2-0.2-6.3-0.5-9.5-0.7c-4.6-1.2-9.2-2.4-13.8-3.6c-6.6-1.4-14.1-1.5-21.4-2.1c0-0.2-0.1-0.4-0.1-0.6&#10;&#9;&#9;&#9;c-0.2-0.9,1.2-2.1,1.8-2.7c-4-0.5-7.9-1.1-11.9-1.7c-7.5-1.4-15-2.4-23.3-3c-0.1-0.5-0.1-0.9,0.1-1.4c1.5-3.2,12.5-4.9,15.9-7&#10;&#9;&#9;&#9;c0.2-0.4,0.4-0.7,0.6-1.1c2.5-1.4,4.9-2.8,7.4-4.3c1,0,2-0.1,2.9-0.1c1.3-0.4,2.6-2.4,4.9-1.9c4.4,1,5.2,5.3,8.8,6.9&#10;&#9;&#9;&#9;c3.4,0.3,6.8,0.6,10.2,1c7,1.2,14.1,1.9,21.8,1.9C1337,1199.6,1335.9,1194.3,1336.8,1188.8z M1378.9,1156.1&#10;&#9;&#9;&#9;c-0.9-1.8-1.8-3.6-2.7-5.4c0,0-0.1,0-0.1,0c-1.3,1.7-2.8,4.5-2.8,7.3C1376.1,1158,1376.6,1156.7,1378.9,1156.1z M1371.5,1218.3&#10;&#9;&#9;&#9;c1.4,0.6,2.9,1.1,4.3,1.6c-0.5-3.1-1.6-5.7-2.1-8.5C1372.4,1212.6,1372,1216.6,1371.5,1218.3z" transform="matrix(1, 0, 0, 1, 0, 0)"/></svg>