<?xml version="1.0" encoding="utf-8"?>
<svg viewBox="1597.899658203125 1026.39990234375 193.5999755859375 211.6002197265625" width="193.5999755859375" height="211.6002197265625" xmlns="http://www.w3.org/2000/svg"><path fill="#CCCCCC" d="M1613.4,1140.2c0-7.1,9.2-6.8,15.3-7.9c1.4-0.3,4.7,0.2,5.7-0.6c1-2.4,0.4-5.3,1.2-7.7&#10;&#9;&#9;&#9;c0.9-1.9,1.8-3.8,2.6-5.7c1-4.1,2-8.2,3-12.3c1.3-3.7,2.5-7.5,3.8-11.2c1-1.9,2-3.8,3-5.8c0.5-2.4,0.9-4.8,1.4-7.2&#10;&#9;&#9;&#9;c-0.1-2.6-0.2-5.2-0.3-7.8c0.4-4.1,0.7-8.1,1-12.2c1.1-3.6,4.7-10,8.8-10.4c-0.7-0.1-1.3-0.3-2-0.4c-1.3,1.1-2.5,2.2-3.8,3.3&#10;&#9;&#9;&#9;c-1.4,2.8-2.7,5.6-4.1,8.4c-0.3,7.8-0.6,15.5-0.9,23.3c-1.3,5.2-4.9,8.9-6.4,14.1c0,0-0.1,0-0.1,0c0-0.1,0-0.2,0-0.3&#10;&#9;&#9;&#9;c1.3-4,2.7-7.9,3.9-11.6c0,0-0.1,0-0.1,0c-1,1.6-2,3.2-2.9,4.8c-0.5,1.6-0.9,3.1-1.4,4.7c0,0-0.1,0-0.1,0c0-4.5,0.9-8.5,1.5-11.9&#10;&#9;&#9;&#9;c0.4-2.1-1.3-4.6-0.7-7.6c0.9-4.4,2.8-9,0.1-12.8c0.4,1.4,0.8,2.8,1.2,4.2c0.4,2.5-1.1,5.7-1.6,7.8c-0.1,1.2-0.3,2.4-0.4,3.7&#10;&#9;&#9;&#9;c0.2,1.4,0.4,2.9,0.6,4.3c0.4,2.4-0.4,5.7-1.4,7.5c0.1-2,0.5-4.5-0.3-6.1c-0.9-1.8-2.7-3.1-3.4-5.3c-0.8-2.7,0.5-5.6,0.9-7.5&#10;&#9;&#9;&#9;c0,0-0.1,0-0.1,0c0,0.1,0,0.1,0,0.2c-1.1,1.1-1.8,3.6-1.5,5.8c0.1,1,0.1,2.1,0.2,3.1c0-0.1,0-0.1,0-0.2c-0.3-0.9-0.6-1.9-0.9-2.8&#10;&#9;&#9;&#9;c-1-2.5-3.7-5.1-3-8.8c0.5-2.4,1-4.8,1.6-7.1c0.7-1.7,1.3-3.4,2-5.1c0.1-3,0.3-6.1,0.4-9.1c0-1-0.1-2.1-0.1-3.1&#10;&#9;&#9;&#9;c0.7-1.9,1.3-3.8,2-5.8c1.3-5.7,0.4-9.5,4.7-12.3c3.8-2.4,12.3-2,17.4-2c1.6,2,2.7,1.4,5.1,2.4c1,0.4,1.7,1.9,2.7,2.4&#10;&#9;&#9;&#9;c0.6,0.3,1.1,0.1,1.5,0.5c1.1,2.1-0.7,3.5-0.4,5.6c0.5,3.5,3.4,5.1,4.8,7.7c1.9,3.5,2,7.9,4.1,11.2c1,1,2,2,3,2.9&#10;&#9;&#9;&#9;c2.6,2.6,5,5.3,8.1,7.5c1.5,0.9,3.1,1.8,4.6,2.7c0.8,1.1,1.5,2.2,2.3,3.3c0.5,0.5,1,0.1,1.4,0.8c-0.9,1.6-1.3,4.9-1.6,6.9&#10;&#9;&#9;&#9;c1.9,2,3.7,4.1,5.6,6.1c3.7,2.9,7.4,4.9,10.3,8.6c3.5,4.5,6.9,9.2,10.4,13.6c1.1,1.3,2.2,2.7,3.2,4c0.7,0.4,1.5,0.8,2.2,1.3&#10;&#9;&#9;&#9;c0.3,0.8,0.7,1.5,1.1,2.3c0.6,1,5.9,6,6.9,6.5c1.4,0.2,2.8,0.4,4.2,0.5c2.4,0.5,4.8,1,7.2,1.5c0.1,0.3,0.1,0.7,0.2,1&#10;&#9;&#9;&#9;c0.8,0.3,1.5,0.6,2.3,0.8c-0.1-3.4-4.4-8.8,0.6-9.9c-0.1-2.9,1.1-3.4,2.3-4.9c-0.2-1.3-0.5-2.2-1.1-3c1.5-2.5,4.8-2.2,7.4-3.6&#10;&#9;&#9;&#9;c0.6-3.4,5-6.3,8.7-6.7c-0.5-3.2,0.7-4.5,3.7-5c0.7-0.1,1.5-0.2,2.2-0.3c2,0.5,3.6,2.1,5.2,2.9c1,0.2,2,0.5,3,0.7&#10;&#9;&#9;&#9;c1.2,0.7,1.7,2.6,2,4.2c1,0.2,2,0.4,3,0.5c0.9,0.5,3.7,4.5,4,5.7c-0.1,1.1-0.1,2.2-0.2,3.4c0.2,1.1,1.3,3,0.7,4.7&#10;&#9;&#9;&#9;c-0.3,0.9-2.6,4.9-3.3,5.9c-1,1.4-2.4,2.3-3.8,3.4c-2.3,1.8-3.9,4.4-6.8,5.7c-2.4,1.1-6.8,1.1-8.1,3.4c-0.2,1-0.3,2-0.5,2.9&#10;&#9;&#9;&#9;c-0.4,1.2-0.7,2.4-1,3.7c0.5,2.2,1,4.5,1.6,6.7c-0.3,3.6-0.7,7.2-1.1,10.8c-1,3.1-2.1,6.2-3.1,9.3c-0.8,1.5-1.7,3.1-2.5,4.6&#10;&#9;&#9;&#9;c-0.2,2.7-0.4,5.3-0.5,8c-0.4,1.2-0.8,2.3-1.2,3.5c0.1,1.1,1,2,0.8,3.5c-1,7.1-0.9,14.6-0.9,22.7c2.6-0.3,8.4,1.5,10.3,2.8&#10;&#9;&#9;&#9;c0,0,0,0.1,0,0.1c-0.3,0.1-0.6,0.2-0.8,0.3c0,0.1,0.1,0.1,0.1,0.2c0.6,0.2,1.3,0.4,1.9,0.5c-0.1,0.1-0.3,0.3-0.4,0.4&#10;&#9;&#9;&#9;c-0.3,0.4-0.6,0.7-0.9,1.1c-2.3-0.2-4.7-0.4-7-0.5c-0.7,0.6-1.4,1.3-2.1,1.9c-0.7,0.1-1.5,0.2-2.2,0.3c-0.4,2.3-0.8,4.7-1.2,7&#10;&#9;&#9;&#9;c0.9,1.1,1.8,2.2,2.7,3.4c1.8,0.4,3.6,0.7,5.4,1c3.1,0.9,6.2,1.9,9.2,2.8c1.2,0.4,3.1,0.5,4,1.3c-1.7,0.3-3,1.6-4.4,1.9&#10;&#9;&#9;&#9;c-2.4-0.5-4.8-1-7.2-1.5c0.2,0.2,0.3,0.4,0.5,0.6c1.5,1.3,3,2.5,4.5,3.8c-0.1,0.3-0.2,0.6-0.3,0.8c-0.1,0-0.1,0.1-0.2,0.1&#10;&#9;&#9;&#9;c-1.3-0.3-2.7-0.6-4-0.8c-4.8-1.9-8-3.8-15.1-3.9c-0.3,0.7-0.8,1.8-1.5,2.1c-1.2,0.3-2.4-0.2-3-0.7c-0.2-2.3,0.7-3.4,1.2-5.2&#10;&#9;&#9;&#9;c0.4-1.7,0.2-13.5-0.4-14.9c-0.8-1.8-3.7-1.9-4.6-3.9c1.4-0.4,2.4-0.7,3.8-0.3c0.1-7.4-0.4-14.3-1.5-21c0.1-3,0.1-6,0.2-9&#10;&#9;&#9;&#9;c-0.7-2.3-1.4-4.7-2.1-7c-0.5-3.6-0.9-7.3-1.4-10.9c-8.4,0-17.6,0.2-25.8-0.1c0.6,6.2-1.3,7-3.9,10.8c-0.8,1.5-1.7,2.9-2.5,4.4&#10;&#9;&#9;&#9;c-0.8,0.5-1.6,1-2.4,1.5c-1.8,1.7-3.6,3.5-5.5,5.2c-5.4,4.4-11.5,10.1-9.9,20.1c0,1.5,0,3.1,0,4.6c2.2,0.3,3.6,0.5,4.6,1.9&#10;&#9;&#9;&#9;c0,0.1,0,0.1,0,0.2c-0.3,0.3-0.6,0.6-0.8,0.8c-3.8,0.1-8.9,0.7-12.1-0.4c-0.2-0.5-2-5-2.2-5.2c0,0.1,0,0.1,0,0.2&#10;&#9;&#9;&#9;c-0.9,1.9-1.7,3.7-2.6,5.6c-1.9,4.2-3.9,7.7-3.9,13.9c0.8,0.8,1.7,1.7,2.5,2.5c1.1,0.5,1-0.4,2.4,0.6c0.1,0.2,0.3,0.4,0.4,0.5&#10;&#9;&#9;&#9;c0,0,0,0.1,0,0.1c-1.2,1.5-1.8,1.7-4.2,2.1c-0.5,0-1,0-1.5,0c-0.3,0.2-0.6,0.5-0.9,0.7c-2,0.7-7.1-1.6-8.8-2.1&#10;&#9;&#9;&#9;c-1.2-2.6-0.8-6.1-1.7-9.4c-0.9-3.8-3.9-9.9-1.5-13.7c0.9-1.4,8.2-2,10.2-3.8c2-3.3,4-6.6,6-9.9c4-6.8,8.4-12.5,9.9-21.9&#10;&#9;&#9;&#9;c-5,0.8-11.5,3.8-17.7,1.7c-2.7-1.2-5.5-2.4-8.2-3.7c-1.4-0.9-2.8-1.9-4.2-2.8c-3.4,0.3-6.7,0.7-10.1,1c-1.2-0.1-2.3-0.2-3.5-0.3&#10;&#9;&#9;&#9;c-3.7-0.6-7.4-0.8-10.9-1.2c0,5.1-0.4,8.9-1.2,13.3c0.1,1.7,0.1,3.4,0.2,5.1c0,2,0,4,0,6c0.5,3.4,1,6.9,1.5,10.3&#10;&#9;&#9;&#9;c0.8,2,1.7,3.9,2.5,5.9c1.1,2.6,1.6,6.2-0.6,7.7c2.1,4.4,5.2,9,3.4,14.7c-4.7,0.4-10.2,0.8-15.1,1.6c-2.7,0.1-5.5,0.2-8.2,0.3&#10;&#9;&#9;&#9;c-3.2,0.5-7.6,2.1-10.4,0.3c-2.3,1.2-7.6,0.2-9.4-1.2c0,0,0-0.1,0-0.1c0.7-3.5,8.7-6.1,12.4-7.2c2.2-0.7,8.2-2.7,9.3-4.2&#10;&#9;&#9;&#9;c0.5-2,1-3.9,1.6-5.9c0,0,0-0.1,0-0.1c-4.8,0-8.4,0.9-12.9,0.9c-1.7,0-4.1,0.7-5.5-0.1c-0.3-0.5-0.7-0.9-1-1.4&#10;&#9;&#9;&#9;c0-0.3,0.1-0.6,0.1-0.8c1-0.4,2-0.8,2.9-1.2c5.5-1.7,10.1-3.2,14.9-5.5c-0.7-2.2-1.5-4.5-2.2-6.7c-1.7-3.1-3.4-6.2-5.1-9.3&#10;&#9;&#9;&#9;c-1.8-4.4-3.6-8.7-5.5-13.1c-0.7-3-1.5-6-2.2-9c-0.6-0.9-1.2-1.9-1.8-2.8c-0.4-1.5-0.8-3-1.2-4.5c0.1-1.8,0.1-3.6,0.2-5.4&#10;&#9;&#9;&#9;c0.3-2,0-3.7,0.5-5.5C1604.1,1144.2,1607.7,1140.3,1613.4,1140.2z M1660.5,1079.9c-1,4.6-2.1,9.2-3.1,13.8&#10;&#9;&#9;&#9;c-0.3,2.4-0.6,4.8-0.9,7.2c-2,2.7-4.1,5.4-6.1,8.1c-2.3,4.4-4.5,8.9-6.8,13.3c-0.8,2.5-0.8,5.2-1.6,8.1c0.5,0.6,1,1.1,1.5,1.7&#10;&#9;&#9;&#9;c4.5,0.4,9.1,0.8,13.6,1.3c-0.4-0.8-0.8-1.6-1.3-2.4c-0.7-2.3,0.1-5.4,0.5-7c0.9-3.1,1.3-6.1,2.9-8.5c2.3-3.3,6.9-5.4,8.4-9.4&#10;&#9;&#9;&#9;c0.8-2,0.8-6.4,0.2-8.8c-1-4.5-3.4-8.8-5.1-12.7C1662,1083,1661.2,1081.4,1660.5,1079.9z M1694.9,1093.5c-0.7,4.1-2.7,7.2-3.6,11&#10;&#9;&#9;&#9;c-0.8,3.3,0,7.2-0.8,10.7c-1,2.5-2,5-3,7.4c2,2.6,4.8,3.5,7.6,5.4c1.4,1.2,2.9,2.4,4.3,3.7c6.3,0.1,9.5-1.8,14.7-2.8&#10;&#9;&#9;&#9;c1.8,0.1,3.5,0.2,5.3,0.3c2.6-0.4,3.7-1.3,5.6-2c1.4-0.3,2.9-0.6,4.3-0.9c-3.9-1.2-2.8-2.5-4.6-5.3c-1.6-1.7-3.1-3.4-4.7-5&#10;&#9;&#9;&#9;c-6.4-5.1-12.9-10.2-19.4-15.3C1698.5,1098.2,1696.7,1095.9,1694.9,1093.5z M1641.5,1100.2c0,0.1,0.1,0.1,0.1,0.2&#10;&#9;&#9;&#9;C1641.6,1100.3,1641.5,1100.2,1641.5,1100.2z" transform="matrix(1, 0, 0, 1, 0, 0)"/></svg>