<?xml version="1.0" encoding="utf-8"?>
<svg viewBox="1439.300048828125 1550.700439453125 131.4000244140625 119.9000244140625" width="131.4000244140625" height="119.9000244140625" xmlns="http://www.w3.org/2000/svg"><path fill="#CCCCCC" d="M1461.9,1634.3c0.4,0,0.7,0.1,1.1,0.1c0.2,0.5,0.4,1,0.7,1.4c0.6,0.6,1.2,0.4,1.8,1.3&#10;&#9;&#9;&#9;c-0.7,1.4-1.5,2.2-1.5,4.3c0.5,0.5,1,1,1.5,1.5c0.8,0.4,3.8,0.3,4.8,0.1c2.5-0.4,4.8-0.3,7.1-1c1.8-0.6,3.1-2,5.4-2&#10;&#9;&#9;&#9;c0-0.2,0-0.3,0.1-0.4c0.3,0,0.5,0,0.8-0.1c0.5,1.1,2.3,0.9,3.3,1.5c1.5,0.9,1.9,2.7,3.1,3.9c1.6,0.2,3.2,0.4,4.7,0.5&#10;&#9;&#9;&#9;c2.7-0.4,4.2-1.4,6.2-2.4c-0.1-0.2-0.2-0.5-0.3-0.7c1-0.8,2.9-0.7,4.2-1c1.1-0.3,2.2-0.7,3.1-1c-1.3-3.3-2.6-6.6-3.9-10&#10;&#9;&#9;&#9;c-1.3-4.8-2.6-9.6-4-14.5c-0.4-1.6-0.8-3.3-1.3-4.9c-0.3-1.1-1.1-2.6-0.7-4.2c0.8-3.2,4-3.8,5.8-5.9c3.1-3.8,5.8-8,8.1-12.7&#10;&#9;&#9;&#9;c-1.1,0.2-2,0.4-3.4,0.4c-0.7-0.9-1.6-2.1-3.2-2.2c0-0.8,0.2-0.9,0.5-1.4c-0.1-0.2-0.1-0.4-0.2-0.6c-0.6,0.2-1.2,0.4-1.9,0.6&#10;&#9;&#9;&#9;c-0.4-0.6-0.7-1.4-1.2-1.9c-0.8,0.4-1.3,0.8-2.3,0.6c-0.3-1.8-0.5-3.5-0.8-5.3c-0.1-0.1-1.3-0.4-1.5-0.7c-0.5-0.5-0.8-3-0.8-4.2&#10;&#9;&#9;&#9;c0,0-0.1,0-0.1,0.1c-0.1,0.3-0.3,0.5-0.4,0.8c-0.1,0.6-0.3,1.2-0.4,1.9c0,0,0-0.1,0-0.1c-0.4-0.7-0.3-1.7-0.7-2.5&#10;&#9;&#9;&#9;c-0.2,1-0.4,2-0.7,3c0,0,0-0.1,0-0.1c-0.6-1.2-0.6-3-0.6-4.7c0,0-0.1,0-0.1,0.1c-0.4,0.4-0.7,0.9-1.1,1.3c0-0.5,0-1,0-1.5&#10;&#9;&#9;&#9;c0,0-0.1,0-0.1,0.1c-0.3,0.6-0.5,1.1-0.8,1.7c0,0,0,0-0.1,0c-0.1-2.2,0.4-3.1,1.5-4.2c0.3-0.3,0.6-0.7,0.9-1&#10;&#9;&#9;&#9;c-0.3,0.1-0.7,0.2-1,0.3c0.2-0.3,0.5-0.5,0.7-0.8c0.3-0.1,0.4-0.3,0.6-0.6c-0.4,0-0.9,0.1-1.3,0.1c0,0,0.1,0,0.1,0&#10;&#9;&#9;&#9;c1.1-0.9,2.1-1.2,2.6-2.6c-0.2,0.1-0.4,0.2-0.7,0.3c0.3-0.3,0.6-0.6,0.8-0.9c0.4-0.7,1.3-1.1,1.8-1.7c-0.4,0-0.9,0-1.3,0.1&#10;&#9;&#9;&#9;c0.6-0.7,1.3-1.3,1.9-2c0.7-0.3,1.4-0.6,2.1-0.9c1-0.4,1.9-0.5,2.9-0.9c0.6-0.3,1.3-0.6,1.9-0.8c1.4-0.3,3.2,1,4.1,1.3&#10;&#9;&#9;&#9;c0.8,0.1,1.6,0.2,2.4,0.3c1.2,0.3,4,2,4.7,2.9c1.1,1.7,2.1,3.3,3.2,5c-0.3-1-0.6-1.9-0.9-2.9c0.3-2.7,0.7-5.4,1-8&#10;&#9;&#9;&#9;c-0.2-1.3-0.5-2.7-0.7-4c0.2-0.1,0.4-0.2,0.7-0.3c0.6,0.8,1.8,1.1,2.5,1.9c0.5,0.5,0.7,1.2,1.3,1.7c0-1.4-0.1-3.4-0.5-4.6&#10;&#9;&#9;&#9;c0.1-0.2,0.3-0.3,0.4-0.5c1.1,0.1,1.5,0.4,2.5,0.3c1.1,1.5,2.6,2.1,3.3,4c0,0.5,0,1.1,0.1,1.7c0.3,1.1,0.9,2.3,1.1,3.5&#10;&#9;&#9;&#9;c0.1,1,0.1,1.9,0.2,2.9c0.3,1.7-0.2,3.3,0.3,4.7c0.4,1.3,2.3,3.7,1.8,5.7c-0.7,2.5-4.3,2.7-5.7,4.5c4.7,0.2,8.7,5,10.9,7.9&#10;&#9;&#9;&#9;c1.4,1.8,2.2,4.1,3.1,6.3c0.4,1,0.9,2.1,1.3,3.1c0.4,2.1,0.8,4.3,1.3,6.4c2.3,5.4,4.5,10.9,6.8,16.3c0.9,3.4,1.8,6.9,2.7,10.3&#10;&#9;&#9;&#9;c0.9,1.5,1.8,3,2.7,4.5c0.9,2.4,1.7,6.5,1.3,9.9c-0.4,1.1-0.7,2.3-1.1,3.4c0.4,0.4,0.8,0.8,1.2,1.2c0.9,0.8,1.8,1.6,2.6,2.4&#10;&#9;&#9;&#9;c3.2,2.4,7,4.1,9.4,7.5c0,0.4,0,0.8,0,1.2c-0.8,0.2-1.7,0.4-2.5,0.6c-0.9-0.1-3.8-1-4.4-0.8c0,0,0.1,0,0.1,0&#10;&#9;&#9;&#9;c1.2,1.1,3.1,1.8,4.8,2.4c0.7,0.2,1.4,0.3,2.1,0.5c0.3,0.3,0.7,0.7,1,1c-0.8,1.7-3.2,1.6-5.7,1.5c-1.7-0.1-3.4-0.1-5.1-0.2&#10;&#9;&#9;&#9;c-2.1-0.4-5-0.7-7.3-0.3c-7.7,1.5-15.1,2.9-22.6,4.5c-5.4,1.2-11.1,1.4-16.8,2.4c-3.3,0.6-11-0.6-12.8-1.9&#10;&#9;&#9;&#9;c-0.6-0.5-1.5-1.9-1.7-2.9c0.2-0.7,0.4-1.4,0.6-2.1c-3.7-0.4-7.4-0.8-11.1-1.3c-1.3-0.1-2.6-0.1-4-0.2c-8.2-1.3-15.7,0-21.1-4.3&#10;&#9;&#9;&#9;c-0.9-0.8-3.9-4.4-4.3-5.6c-0.2-0.8-0.3-1.5-0.5-2.3c-0.7-2.2-1.3-3.6-3.6-4.9c-1.9,1.1-4.4,1.7-10.3-0.4&#10;&#9;&#9;&#9;c-3.6-2.8-5.1-5.7-4.3-10.2c0.8-4.5,4.4-6.5,8.4-7.7c0.8,0,1.5,0,2.3-0.1c1.6,0.7,3.2,1.3,4.8,2c0.3,0.2,0.3,0.7,0.3,1.2&#10;&#9;&#9;&#9;c1.4,0.1,3.6,0.1,4.6,0.7c0.1,0.4,0.3,0.8,0.4,1.2c0.1,0.6-0.5,0.7-0.1,1.2C1461.7,1632.6,1461.9,1633.2,1461.9,1634.3z&#10;&#9;&#9;&#9; M1524.2,1556c0.1,1.6,0.2,3.2-0.2,4.8c-0.4,1-0.8,2-1.2,3c-0.2,1.4-0.4,2.8-0.6,4.2c-0.3,1-0.7,2.1-1,3.1&#10;&#9;&#9;&#9;c-0.4,0.8-0.8,1.6-1.3,2.4c-0.2,1-0.4,2-0.5,3c-0.5,0.8-1,1.7-1.5,2.5c-0.8,1.6-1.6,3.1-2.4,4.7c-1,1.3-2,2.6-3,3.9c0,0,0,0,0,0.1&#10;&#9;&#9;&#9;c0.2,0,0.4,0,0.6,0c0.9-1.2,1.8-2.4,2.7-3.6c0.7-1.4,1.5-2.9,2.2-4.3c0.6-1,1.2-2.1,1.8-3.1c0.4-1.3,0.8-2.7,1.2-4&#10;&#9;&#9;&#9;c0.5-1.1,1-2.2,1.5-3.4c0.2-1.8,0.5-3.5,0.7-5.3c0.5-1.4,0.9-2.8,1.4-4.2c0-1.3,0-2.5,0-3.8C1524.4,1556,1524.3,1556,1524.2,1556z&#10;&#9;&#9;&#9; M1527,1578.2c-1.4,1.9-3.8,3-5.1,5c-1.5,2.2-1.3,5.6-2.1,8.5c-0.4,1.3-0.8,2.6-1.2,3.9c0.1,0.1,0.1,0.1,0.2,0.2&#10;&#9;&#9;&#9;c0.5-1.5,0.9-3,1.4-4.5c0.6-2.4,0.6-5.3,1.7-7.4c0.7-1.4,2-2.2,3.2-3.2c0.7-0.7,1.4-1.5,2.1-2.2&#10;&#9;&#9;&#9;C1527.2,1578.4,1527.2,1578.3,1527,1578.2C1527.1,1578.2,1527.1,1578.2,1527,1578.2z M1537.1,1593.4c-0.1,0.1-0.2,0.2-0.3,0.3&#10;&#9;&#9;&#9;c-0.1,2.1-0.2,4.2-0.3,6.3c0.1,1.6,0.2,3.2,0.3,4.8c-0.4,2.4-0.6,4.9-0.8,7.5c0,2.6,0.1,5.3,0.1,7.9c0.1,1.3,0.1,2.5,0.2,3.8&#10;&#9;&#9;&#9;c-0.5,1.9-2.1,3.7-3.1,5.2c-0.6,1-1.3,1.9-1.9,2.9c0.1,0.1,0.1,0.1,0.2,0.2c0,0,0,0,0.1,0c1.1-2.8,4.7-5.3,5.4-8.3&#10;&#9;&#9;&#9;c-0.1-0.6-0.1-1.3-0.2-1.9c-0.1-2.3-0.3-4.5-0.4-6.8c0-1.6,0.1-3.3,0.1-4.9c0.3-1.4,0.4-3,0.7-4.6c0.3-1.9-0.2-3.9-0.2-5.5&#10;&#9;&#9;&#9;C1537,1597.9,1537,1595.7,1537.1,1593.4z M1521.4,1595.8c0.4,3,2.9,2.9,2.4,8.1c-0.7,4.3-0.4,6.2-0.3,8.5c0.3,1.4,0.7,2.8,1,4.1&#10;&#9;&#9;&#9;c0.1,1,0.6,2.4,0.2,3.2c-0.4,0.8-1.6,2.3-2.4,3.4c-2.1,3.9-3.7,8.2-5.9,11.9c-1,1.7-1.5,3.1-2.5,4.8c-1.2,0.5-5.8,2.8-8.9,4.2&#10;&#9;&#9;&#9;c-2.3,0.7-4.2,1.4-6.1,2.5c-0.6,0.2-1.3,1.2-1.4,1.8c0,0,0,0,0,0.1c0.2,0.1,0.2,0.1,0.4,0.2c0-2,2.2-2.2,3.5-2.9&#10;&#9;&#9;&#9;c-0.4,0.2,6.8-2.4,10.2-4.3c0.8-0.4,1.6-0.8,2.4-1.2c0.7-0.5,2-3.6,2.5-4.5c1.8-3.7,3.6-7.4,5.4-11.1c1.3-2.1,2.9-4.1,3.2-5&#10;&#9;&#9;&#9;c0.5-1.5-0.9-5.3-1.4-7.9c-0.6-3.7,1-7.9,0.2-11.5c-0.3-1.4-1-2-1.7-3C1522,1596.7,1521.6,1596.3,1521.4,1595.8z M1518.5,1596.3&#10;&#9;&#9;&#9;c-0.6,3.6-2.3,6.6-4.1,9c-0.7,0.7-1.5,1.3-2.2,2c-0.1,2.9,0.9,4.9,1.8,7c1.3,3.2,2.6,6.1,4.1,9.1c0,0,0.1,0,0.1-0.1&#10;&#9;&#9;&#9;c0.3-0.6,0.5-1.2,0.8-1.9c0.1-0.7,0.2-1.5,0.3-2.2c0.7-1.4,1.4-2.8,2-4.2c-0.2-0.8-0.5-1.5-0.7-2.3c-0.3-1.2-0.7-2.4-1-3.6&#10;&#9;&#9;&#9;c-0.9-1.4-1.9-2.4-2.4-4.4c-0.4-2.1,0.5-5,0.9-6.7C1518.3,1597.4,1518.4,1596.8,1518.5,1596.3z M1531,1632.4&#10;&#9;&#9;&#9;c-0.9,2.4-3.2,3.6-4.5,5.7c1.1-0.8,1.9-2,2.9-2.6c0.9-0.4,1.7-0.9,2.6-1.3C1531.9,1633.4,1531.5,1632.8,1531,1632.4z M1526,1638.4&#10;&#9;&#9;&#9;c-1.7,1.6-3.3,3.1-5,4.7c-1,0.8-2.2,1.4-3,2.4c2-0.5,6.9-5.2,8.1-6.8C1526.1,1638.5,1526.1,1638.4,1526,1638.4z M1539.9,1653.1&#10;&#9;&#9;&#9;c-0.1,0.5-3.6-1.4-5.3-2.3c0.5,1.8,2.8,2.6,2.6,4.8c-0.2,0.1-0.4,0.2-0.6,0.3c-1.4-0.5-1.2-0.9-2.1-1.7c0.2,0.4,1.2,1.8,0.9,2.3&#10;&#9;&#9;&#9;c-0.1,0.1-0.4,0.4-0.8,0.4c-1.5-0.2-1.8-1.3-2.5-2.3c0,0-0.1,0-0.1,0.1c0,0.1,0,0.1-0.1,0.2c0.4,0.7,0.9,1.6,0.9,2.1&#10;&#9;&#9;&#9;c0,0.5-0.5,0.3-0.9,0.5c-1.2-0.6-1.4-1.2-2.3-1.9c-4.1-2.6-5.2-3.6-6.9-3.9c-1.6-0.3-2.2,0.5-8.1,2.1c-3.2,0.6-8.7,2.2-26.3,4.6&#10;&#9;&#9;&#9;c-3.4,0.6-6.9,0.6-10.7,0.6c-1.8,0-3.5,0-5.3-0.1c0,0,0.1,0,0.1,0c0.7,0.6,2.8,0.3,4,0.3c3.4,0,7.6,0,10.7-0.4&#10;&#9;&#9;&#9;c14-1.6,31.6-5.6,27.6-4.7c2.6-0.8,5-1.9,8.1-2c1.1-0.1,4.9,2.5,6.6,3.8c0.8,0.6,1.5,1.4,2.4,1.9c0.9,0.5,1.4-0.5,2-0.7&#10;&#9;&#9;&#9;c0.2,0,0.6,0.1,0.9,0.1c1,0,0.9-0.4,1.3-0.9c0.9,0.4,1.3,0.1,1.7-0.8c0.2-1.1-1.3-2.9-2.1-3.9c1.1,0.4,4,2.4,4.7,1.7&#10;&#9;&#9;&#9;c0.5-0.6,0.5-2-2-3.7c-0.7-0.5-1.6-1.1-2.5-1.6c-1.1-0.6-2.1-0.9-2.7-1.8c1.8-0.7,3.4-1.4,3.7-1.7c0.4-0.4,0.5-1.4,0.2-1.8&#10;&#9;&#9;&#9;c-0.3-0.4-0.6-0.4-1.3-0.4c-0.6,0.2-1.9,0.7-2.6,0.8c-1.1,0.1-2.2,0.1-3.2,0.2c-2.1,0.5-4.1,1-6.2,1.4c-4.3,0.7-8.7,1.5-13,2.2&#10;&#9;&#9;&#9;c-1.7,0.1-3.4,0.2-5.1,0.3c-3.5,0.8-6.8,2.1-10.6,2.7c-2-0.4-4.1-0.8-6.1-1.2c-4.5-1-8.9-1.9-14.2-1.9c0,0,0,0.1,0.1,0.1&#10;&#9;&#9;&#9;c5,0.6,9.2,1.1,13.7,2.1c2.2,0.4,4.4,0.8,6.6,1.2c3.8-0.6,7.3-2,10.9-2.8c1.6-0.1,3.2-0.2,4.8-0.3c4.6-0.8,9.1-1.2,13.5-2.2&#10;&#9;&#9;&#9;c2.1-0.5,4.2-1,6.4-1.4c1-0.1,1.9-0.1,2.9-0.2c1.2-0.4,2.4-1.3,3-0.8c0.6,0.5,0.2,0.9,0.2,1.4c-1.2,0.9-2.3,1.5-4.2,1.8&#10;&#9;&#9;&#9;C1534,1648.3,1540.5,1650.1,1539.9,1653.1z M1548,1653.2c0,0,0,0.1,0,0.1c-1.1,1-3.6,1.7-5.1,2.4c-1.4,0.6-2.5,1.9-4.1,2.4&#10;&#9;&#9;&#9;c-3.8,0.3-7.6,0.7-11.4,1c-5.7,1.2-11.6,3-14.8,6.6c0,0.2,0,0.4,0,0.6c0.8-0.6,1.5-1.2,2.3-1.9c1.2-0.8,2.4-1.6,3.6-2.4&#10;&#9;&#9;&#9;c2.2-1.2,5.6-2,8.3-2.6c2.9-0.2,5.9-0.5,8.8-0.7c1.7-0.3,4-0.5,5.8-0.2c1.6,0.2,7,0.5,8.1-0.2c0.7-0.4,1.1-1.5,1.7-2.1&#10;&#9;&#9;&#9;c0.7-0.9,1.4-0.7,2-1.9C1551.5,1654.1,1549.7,1653.6,1548,1653.2z" transform="matrix(1, 0, 0, 1, 0, 0)"/></svg>